# xmcd
#
# Track frame offsets:
#	150
#	16865
#	36654
#	57577
#	73740
#	87050
#	107755
#	131827
#	155054
#	167140
#	183983
#	205508
#	220116
#	233229
#	243642
#	255968
#	268882
#	282214
#	295368
#
# Disc length: 4109 seconds
# Revision: 1
# Processed by: cddbd v1.5.2PL0 Copyright (c) Steve Scherf et al.
# Submitted via: dBpowerAMP V12.0
#
DISCID=21100b13
DTITLE=Harry Belafonte - Belafonte Sings The Blues
DYEAR=1958
DGENRE=Blues
TTITLE0=A Fool for You
TTITLE1=Losing Hand
TTITLE2=One for My Baby
TTITLE3=In the Evenin' Mama
TTITLE4=Hallelujah I Love Her So
TTITLE5=The Way that I Feel
TTITLE6=Cotton Fields
TTITLE7=God Bless the Child
TTITLE8=Mary Ann
TTITLE9=Sinner's Prayer
TTITLE10=Fare Thee Well
TTITLE11=Lean on Me
TTITLE12=Recognition
TTITLE13=Whispering
TTITLE14=I Still Get a Thrill
TTITLE15=The Night Has a Thousand Eyes
TTITLE16=Smoke Gets in Your Eyes
TTITLE17=The Blues Is Man Part I
TTITLE18=The Blues Is Man Part II
EXTD=
EXTT0=
EXTT1=
EXTT2=
EXTT3=
EXTT4=
EXTT5=
EXTT6=
EXTT7=
EXTT8=
EXTT9=
EXTT10=
EXTT11=
EXTT12=
EXTT13=
EXTT14=
EXTT15=
EXTT16=
EXTT17=
EXTT18=
PLAYORDER=
